<svg width="60" height="60" viewBox="0 0 60 60" fill="none" xmlns="http://www.w3.org/2000/svg">
<path fill-rule="evenodd" clip-rule="evenodd" d="M30 60C46.5685 60 60 46.5685 60 30C60 13.4315 46.5685 0 30 0C13.4315 0 0 13.4315 0 30C0 46.5685 13.4315 60 30 60ZM30 57C44.9117 57 57 44.9117 57 30C57 15.0883 44.9117 3 30 3C15.0883 3 3 15.0883 3 30C3 44.9117 15.0883 57 30 57Z" fill="url(#paint0_linear_515_24)"/>
<circle cx="30" cy="30" r="7" fill="url(#paint1_linear_515_24)"/>
<path d="M13.3956 12.3606C13.1665 11.9347 13.2754 11.4043 13.658 11.1085C20.6996 5.66445 25.879 4.38335 35.6743 5.74809C36.4296 5.85332 36.78 6.73803 36.3087 7.33756L29.5 16L21.9459 25.3315C21.4964 25.8869 20.6263 25.8052 20.2879 25.176L13.3956 12.3606Z" fill="url(#paint2_linear_515_24)"/>
<path d="M7.99514 38.1011C7.51356 38.1456 7.06785 37.8381 6.94506 37.3704C4.6852 28.7614 5.52969 23.4931 10.6133 15.0097C11.0052 14.3556 11.9565 14.3788 12.3243 15.0468L17.6377 24.699L23.2758 35.2987C23.6113 35.9295 23.1963 36.6984 22.4848 36.7641L7.99514 38.1011Z" fill="url(#paint3_linear_515_24)"/>
<path d="M28.7905 53.6968C28.6352 54.1548 28.1731 54.4369 27.6958 54.3589C18.9119 52.9217 14.4426 50.0075 8.76033 41.9129C8.3222 41.2888 8.73027 40.4291 9.49012 40.3649L20.469 39.4367L32.4455 38.5973C33.1582 38.5474 33.6919 39.2393 33.4625 39.916L28.7905 53.6968Z" fill="url(#paint4_linear_515_24)"/>
<path d="M51.1821 39.8129C51.5541 40.122 51.6519 40.6546 51.4079 41.0722C46.9184 48.7576 42.5961 51.8857 33.0027 54.2897C32.2631 54.475 31.6068 53.786 31.8191 53.0536L34.887 42.4713L38.3954 30.9895C38.6042 30.3062 39.4414 30.056 39.9909 30.5126L51.1821 39.8129Z" fill="url(#paint5_linear_515_24)"/>
<path d="M48.2208 14.0167C48.6526 13.7988 49.18 13.9215 49.4657 14.3117C54.7235 21.4935 55.8686 26.7046 54.2479 36.4609C54.1229 37.2131 53.2293 37.5402 52.6424 37.0535L44.1611 30.0203L35.0305 22.2245C34.4871 21.7606 34.5915 20.893 35.2294 20.5712L48.2208 14.0167Z" fill="url(#paint6_linear_515_24)"/>
<defs>
<linearGradient id="paint0_linear_515_24" x1="63.5" y1="29.5" x2="-2" y2="31" gradientUnits="userSpaceOnUse">
<stop stop-color="#6C40B6"/>
<stop offset="1" stop-color="#A830C6"/>
</linearGradient>
<linearGradient id="paint1_linear_515_24" x1="43.5" y1="30" x2="22.5333" y2="30.2333" gradientUnits="userSpaceOnUse">
<stop stop-color="#6C40B6"/>
<stop offset="0.546875" stop-color="#A830C6"/>
</linearGradient>
<linearGradient id="paint2_linear_515_24" x1="36.5" y1="10.5" x2="17.014" y2="11.7237" gradientUnits="userSpaceOnUse">
<stop stop-color="#6C40B6" stop-opacity="0.9"/>
<stop offset="0.380208" stop-color="#A830C6"/>
</linearGradient>
<linearGradient id="paint3_linear_515_24" x1="4" y1="27" x2="43.5" y2="27" gradientUnits="userSpaceOnUse">
<stop stop-color="#A830C6"/>
<stop offset="1" stop-color="#6C40B6"/>
</linearGradient>
<linearGradient id="paint4_linear_515_24" x1="13" y1="42" x2="40.9963" y2="41.6787" gradientUnits="userSpaceOnUse">
<stop offset="0.322917" stop-color="#A830C6"/>
<stop offset="0.916667" stop-color="#6C40B6"/>
</linearGradient>
<linearGradient id="paint5_linear_515_24" x1="26.4929" y1="50.298" x2="48.382" y2="33.9935" gradientUnits="userSpaceOnUse">
<stop stop-color="#6C40B6"/>
<stop offset="1" stop-color="#A830C6"/>
</linearGradient>
<linearGradient id="paint6_linear_515_24" x1="47.9915" y1="40.8392" x2="41.7675" y2="14.264" gradientUnits="userSpaceOnUse">
<stop stop-color="#6C40B6"/>
<stop offset="1" stop-color="#A830C6"/>
</linearGradient>
</defs>
</svg>
