<svg width="170" height="60" viewBox="0 0 170 60" fill="none" xmlns="http://www.w3.org/2000/svg">
<path fill-rule="evenodd" clip-rule="evenodd" d="M30 60C46.5685 60 60 46.5685 60 30C60 13.4315 46.5685 0 30 0C13.4315 0 0 13.4315 0 30C0 46.5685 13.4315 60 30 60ZM30 57C44.9117 57 57 44.9117 57 30C57 15.0883 44.9117 3 30 3C15.0883 3 3 15.0883 3 30C3 44.9117 15.0883 57 30 57Z" fill="url(#paint0_linear_515_25)"/>
<circle cx="30" cy="30" r="7" fill="url(#paint1_linear_515_25)"/>
<path d="M13.3956 12.3606C13.1665 11.9347 13.2754 11.4043 13.658 11.1085C20.6996 5.66445 25.879 4.38335 35.6743 5.74809C36.4296 5.85332 36.78 6.73803 36.3087 7.33756L29.5 16L21.9459 25.3315C21.4964 25.8869 20.6263 25.8052 20.2879 25.176L13.3956 12.3606Z" fill="url(#paint2_linear_515_25)"/>
<path d="M7.99514 38.1011C7.51356 38.1456 7.06785 37.8381 6.94506 37.3704C4.6852 28.7614 5.52969 23.4931 10.6133 15.0097C11.0052 14.3556 11.9565 14.3788 12.3243 15.0468L17.6377 24.699L23.2758 35.2987C23.6113 35.9295 23.1963 36.6984 22.4848 36.7641L7.99514 38.1011Z" fill="url(#paint3_linear_515_25)"/>
<path d="M28.7905 53.6968C28.6352 54.1548 28.1731 54.4369 27.6958 54.3589C18.9119 52.9217 14.4426 50.0075 8.76033 41.9129C8.3222 41.2888 8.73027 40.4291 9.49012 40.3649L20.469 39.4367L32.4455 38.5973C33.1582 38.5474 33.6919 39.2393 33.4625 39.916L28.7905 53.6968Z" fill="url(#paint4_linear_515_25)"/>
<path d="M51.1821 39.8129C51.5541 40.122 51.6519 40.6546 51.4079 41.0722C46.9184 48.7576 42.5961 51.8857 33.0027 54.2897C32.2631 54.475 31.6068 53.786 31.8191 53.0536L34.887 42.4713L38.3954 30.9895C38.6042 30.3062 39.4414 30.056 39.9909 30.5126L51.1821 39.8129Z" fill="url(#paint5_linear_515_25)"/>
<path d="M48.2208 14.0167C48.6526 13.7988 49.18 13.9215 49.4657 14.3117C54.7235 21.4935 55.8686 26.7046 54.2479 36.4609C54.1229 37.2131 53.2293 37.5402 52.6424 37.0535L44.1611 30.0203L35.0305 22.2245C34.4871 21.7606 34.5915 20.893 35.2294 20.5712L48.2208 14.0167Z" fill="url(#paint6_linear_515_25)"/>
<path d="M80.288 38.036C78.296 38.036 76.844 37.664 75.932 36.92C75.044 36.176 74.6 34.832 74.6 32.888L75.104 24.824V17.084C75.104 16.484 75.224 16.1 75.464 15.932C75.704 15.74 76.232 15.644 77.048 15.644L79.496 15.716C82.568 15.884 85.568 15.968 88.496 15.968C89.12 15.968 89.612 16.148 89.972 16.508C90.356 16.868 90.548 17.36 90.548 17.984C90.548 18.104 90.512 18.2 90.44 18.272C90.368 18.344 90.284 18.368 90.188 18.344L88.496 17.696L77.228 17.984C77.084 17.984 77 17.972 76.976 17.948C77.072 18.14 77.12 18.308 77.12 18.452V24.824C78.224 24.896 79.292 24.932 80.324 24.932C82.1 24.932 84.056 24.848 86.192 24.68C86.408 24.656 86.732 24.632 87.164 24.608C87.62 24.56 87.872 24.56 87.92 24.608C88.064 24.752 88.172 24.884 88.244 25.004C88.316 25.124 88.364 25.292 88.388 25.508C88.46 26.036 87.656 26.384 85.976 26.552C84.32 26.72 82.1 26.852 79.316 26.948C78.38 26.948 77.6 26.972 76.976 27.02C76.688 27.74 76.544 28.892 76.544 30.476L76.58 32.6V34.94C76.964 35.252 77.384 35.456 77.84 35.552C78.296 35.648 79.04 35.696 80.072 35.696C81.152 35.696 82.208 35.636 83.24 35.516C84.296 35.396 84.92 35.324 85.112 35.3C87.128 35.06 88.628 34.94 89.612 34.94C90.188 34.94 90.584 35 90.8 35.12C91.04 35.216 91.16 35.396 91.16 35.66C91.16 37.244 87.944 38.036 81.512 38.036H80.288ZM101.076 30.944C102.156 31.832 103.284 32.876 104.46 34.076C105.66 35.276 106.656 36.428 107.448 37.532C107.424 37.964 107.28 38.264 107.016 38.432C106.752 38.624 106.452 38.684 106.116 38.612C105.3 37.94 104.58 37.292 103.956 36.668C103.332 36.02 102.54 35.168 101.58 34.112L99.852 32.276C99.324 32.804 98.556 33.8 97.548 35.264C97.044 36.008 96.624 36.596 96.288 37.028C95.976 37.436 95.712 37.676 95.496 37.748C95.184 37.748 94.92 37.688 94.704 37.568C94.488 37.424 94.38 37.22 94.38 36.956C94.38 36.788 94.416 36.62 94.488 36.452C94.704 35.852 95.112 35.168 95.712 34.4C96.336 33.632 97.284 32.576 98.556 31.232L95.784 28.46C94.704 27.38 93.996 26.648 93.66 26.264C93.324 25.88 93.036 25.46 92.796 25.004C92.844 24.668 92.976 24.404 93.192 24.212C93.432 23.996 93.696 23.888 93.984 23.888C94.728 24.632 95.652 25.58 96.756 26.732C98.172 28.196 99.216 29.228 99.888 29.828C100.512 29.132 100.788 28.82 100.716 28.892C102.036 27.38 103.2 26.156 104.208 25.22C105.24 24.26 106.08 23.78 106.728 23.78C107.208 23.78 107.496 24.056 107.592 24.608C107.592 24.752 107.256 25.148 106.584 25.796C105.936 26.42 105.216 27.092 104.424 27.812C102.648 29.444 101.532 30.488 101.076 30.944ZM113.757 38.072C113.253 38.072 112.905 37.496 112.713 36.344C112.545 35.168 112.401 33.104 112.281 30.152L112.173 27.524C112.125 26.612 111.957 25.208 111.669 23.312C111.645 23.072 111.549 22.34 111.381 21.116C111.213 19.892 111.129 18.812 111.129 17.876C111.129 17.732 111.201 17.552 111.345 17.336C111.489 17.096 111.669 16.976 111.885 16.976C112.197 16.976 112.401 17.12 112.497 17.408C112.617 17.696 112.689 17.984 112.713 18.272C112.761 18.536 112.785 18.704 112.785 18.776C112.929 19.184 113.037 19.748 113.109 20.468C113.181 21.164 113.241 21.908 113.289 22.7C113.385 24.26 113.481 25.376 113.577 26.048L114.693 24.464C116.253 22.16 117.657 20.312 118.905 18.92C120.177 17.528 121.413 16.856 122.613 16.904C122.709 17 122.757 17.12 122.757 17.264C122.757 17.504 122.637 17.78 122.397 18.092C122.157 18.404 121.797 18.812 121.317 19.316L120.561 20.108C120.297 20.42 119.493 21.308 118.149 22.772C117.213 23.756 116.445 24.596 115.845 25.292C115.245 25.988 114.789 26.624 114.477 27.2C115.533 28.664 116.781 29.96 118.221 31.088C119.685 32.216 121.593 33.548 123.945 35.084L125.025 35.768C125.457 35.936 125.793 36.164 126.033 36.452C126.297 36.716 126.429 36.992 126.429 37.28C126.429 37.424 126.393 37.568 126.321 37.712C126.153 38 125.949 38.144 125.709 38.144C125.445 38.144 124.977 37.976 124.305 37.64L122.361 36.272C120.249 34.88 118.449 33.584 116.961 32.384C115.473 31.184 114.441 30.044 113.865 28.964L114.081 31.664C114.297 34.136 114.405 35.792 114.405 36.632C114.405 37.232 114.357 37.628 114.261 37.82C114.165 37.988 113.997 38.072 113.757 38.072ZM130.293 38.036C129.741 38.036 129.297 37.232 128.961 35.624C128.625 33.992 128.409 32.588 128.313 31.412C128.217 30.236 128.085 28.376 127.917 25.832C127.893 25.424 127.881 24.896 127.881 24.248C127.881 23.432 127.941 22.868 128.061 22.556C128.205 22.244 128.433 22.088 128.745 22.088C129.009 22.088 129.213 22.148 129.357 22.268C129.525 22.364 129.669 22.532 129.789 22.772L129.753 24.212C129.753 25.748 129.825 27.2 129.969 28.568C130.137 29.936 130.389 31.772 130.725 34.076C130.917 35.084 131.049 35.912 131.121 36.56C131.169 36.896 131.109 37.232 130.941 37.568C130.773 37.88 130.557 38.036 130.293 38.036ZM129.393 18.236C128.865 18.236 128.469 18.032 128.205 17.624C127.965 17.216 127.845 16.712 127.845 16.112C127.845 15.848 127.857 15.656 127.881 15.536C127.857 15.152 128.073 14.96 128.529 14.96C128.865 14.96 129.201 15.044 129.537 15.212C129.897 15.356 130.005 15.464 129.861 15.536C130.101 16.16 130.221 16.652 130.221 17.012C130.221 17.324 130.149 17.576 130.005 17.768C129.861 17.936 129.657 18.092 129.393 18.236ZM137.77 38.144C137.434 38.24 137.242 38.288 137.194 38.288C137.002 38.288 136.798 38.192 136.582 38C135.79 36.824 135.214 34.772 134.854 31.844C134.518 28.916 134.35 26.396 134.35 24.284C134.35 23.948 134.59 23.78 135.07 23.78C135.79 23.78 136.15 24.176 136.15 24.968C136.15 25.184 136.138 25.364 136.114 25.508C136.33 25.004 136.738 24.488 137.338 23.96C137.938 23.432 138.634 22.988 139.426 22.628C140.218 22.268 141.022 22.088 141.838 22.088C144.406 22.088 146.278 23.228 147.454 25.508C148.63 27.764 149.218 30.572 149.218 33.932C149.218 35.084 149.098 36.008 148.858 36.704C148.618 37.376 148.294 37.712 147.886 37.712C147.454 37.712 147.238 37.58 147.238 37.316C147.406 36.044 147.49 34.796 147.49 33.572C147.49 30.476 146.95 28.136 145.87 26.552C144.79 24.944 143.362 24.14 141.586 24.14C140.722 24.14 139.882 24.356 139.066 24.788C138.274 25.22 137.626 25.82 137.122 26.588C136.642 27.356 136.402 28.232 136.402 29.216C136.402 30.32 136.462 31.28 136.582 32.096C136.702 32.912 136.894 33.896 137.158 35.048C137.446 36.176 137.65 37.208 137.77 38.144ZM159.556 38.036C158.14 38.036 156.856 37.724 155.704 37.1C154.576 36.452 153.688 35.564 153.04 34.436C152.416 33.284 152.104 31.976 152.104 30.512C152.104 28.112 152.98 26.324 154.732 25.148C156.508 23.972 158.68 23.384 161.248 23.384C162.424 23.384 163.516 23.672 164.524 24.248C165.556 24.824 166.384 25.652 167.008 26.732C167.632 27.812 167.944 29.06 167.944 30.476C167.944 32.012 167.548 33.356 166.756 34.508C165.964 35.636 164.92 36.512 163.624 37.136C162.352 37.736 160.996 38.036 159.556 38.036ZM159.16 35.984C161.392 35.984 163.084 35.48 164.236 34.472C165.388 33.464 165.964 31.988 165.964 30.044C165.964 28.724 165.508 27.584 164.596 26.624C163.708 25.664 162.46 25.184 160.852 25.184C159.772 25.184 158.68 25.388 157.576 25.796C156.472 26.204 155.56 26.816 154.84 27.632C154.12 28.448 153.76 29.432 153.76 30.584C153.76 31.544 154 32.444 154.48 33.284C154.96 34.1 155.608 34.76 156.424 35.264C157.264 35.744 158.176 35.984 159.16 35.984Z" fill="#6C40B6"/>
<defs>
<linearGradient id="paint0_linear_515_25" x1="63.5" y1="29.5" x2="-2" y2="31" gradientUnits="userSpaceOnUse">
<stop stop-color="#6C40B6"/>
<stop offset="1" stop-color="#A830C6"/>
</linearGradient>
<linearGradient id="paint1_linear_515_25" x1="43.5" y1="30" x2="22.5333" y2="30.2333" gradientUnits="userSpaceOnUse">
<stop stop-color="#6C40B6"/>
<stop offset="0.546875" stop-color="#A830C6"/>
</linearGradient>
<linearGradient id="paint2_linear_515_25" x1="36.5" y1="10.5" x2="17.014" y2="11.7237" gradientUnits="userSpaceOnUse">
<stop stop-color="#6C40B6" stop-opacity="0.9"/>
<stop offset="0.380208" stop-color="#A830C6"/>
</linearGradient>
<linearGradient id="paint3_linear_515_25" x1="4" y1="27" x2="43.5" y2="27" gradientUnits="userSpaceOnUse">
<stop stop-color="#A830C6"/>
<stop offset="1" stop-color="#6C40B6"/>
</linearGradient>
<linearGradient id="paint4_linear_515_25" x1="13" y1="42" x2="40.9963" y2="41.6787" gradientUnits="userSpaceOnUse">
<stop offset="0.322917" stop-color="#A830C6"/>
<stop offset="0.916667" stop-color="#6C40B6"/>
</linearGradient>
<linearGradient id="paint5_linear_515_25" x1="26.4929" y1="50.298" x2="48.382" y2="33.9935" gradientUnits="userSpaceOnUse">
<stop stop-color="#6C40B6"/>
<stop offset="1" stop-color="#A830C6"/>
</linearGradient>
<linearGradient id="paint6_linear_515_25" x1="47.9915" y1="40.8392" x2="41.7675" y2="14.264" gradientUnits="userSpaceOnUse">
<stop stop-color="#6C40B6"/>
<stop offset="1" stop-color="#A830C6"/>
</linearGradient>
</defs>
</svg>
